/* XPM */
static char * icon_xpm[] = {
"16 16 76 1",
" 	c None",
".	c #000000",
"+	c #07180F",
"@	c #081C11",
"#	c #010402",
"$	c #41CF84",
"%	c #4BF299",
"&	c #49F298",
"*	c #3ECF82",
"=	c #4ED68E",
"-	c #5AF8A4",
";	c #0A1D13",
">	c #55F8A2",
",	c #48D78B",
"'	c #5AD795",
")	c #68F9AC",
"!	c #0C1D14",
"~	c #63F9A9",
"{	c #55D792",
"]	c #66D79B",
"^	c #75F9B4",
"/	c #0E1D15",
"(	c #0D1D15",
"_	c #71F9B1",
":	c #60D798",
"<	c #72D7A2",
"[	c #83F9BB",
"}	c #0F1D16",
"|	c #7FF9B8",
"1	c #6CD79F",
"2	c #7ED8A8",
"3	c #92FAC3",
"4	c #111D17",
"5	c #111E17",
"6	c #8DFAC0",
"7	c #79D8A5",
"8	c #8AD8AF",
"9	c #A1FCCC",
"0	c #365344",
"a	c #3C604C",
"b	c #9CFDCA",
"c	c #85D9AD",
"d	c #000100",
"e	c #96D8B5",
"f	c #AFFDD4",
"g	c #90D2AF",
"h	c #4A6B5A",
"i	c #3D584A",
"j	c #4E725F",
"k	c #385445",
"l	c #5F9076",
"m	c #A2F3C8",
"n	c #689A7F",
"o	c #0B100D",
"p	c #A2D9BC",
"q	c #BCFBDA",
"r	c #1C2520",
"s	c #151D18",
"t	c #5C806D",
"u	c #27362E",
"v	c #020202",
"w	c #3E574A",
"x	c #50705F",
"y	c #040605",
"z	c #AED9C2",
"A	c #C9FBE1",
"B	c #171D1A",
"C	c #BAD9C8",
"D	c #D7FBE8",
"E	c #191D1B",
"F	c #C0D2C8",
"G	c #DFF5E9",
"H	c #191C1B",
"I	c #171817",
"J	c #1B1C1B",
"K	c #030303",
"                ",
"  .+@#   #@+.   ",
"  .$%@   @&*.   ",
"  .=-;   ;>,.   ",
"  .')!   !~{.   ",
"  .]^/   (_:.   ",
"  .<[}   }|1.   ",
"  .234   567.   ",
"  .890...abcd.  ",
"  .efghijklmno  ",
"  .pqrstu.vwxy  ",
"  .zAB...  ..   ",
"  .CDE          ",
"  .FGH          ",
"  .IJK          ",
"                "};
